####
#
#	OBJ File Generated by LightWave3D
#	LightWave3D OBJ Export v2.3
#
####
o 2x4Fluorescent-Recessed.obj
mtllib 2x4Fluorescent-Recessed.mtl
g default
v -0.609854 0.0888936 0.294526
v -0.609854 0.0888936 -0.294525
v -0.609412 -0.0889214 0.3048
v -0.609412 -0.0889214 -0.3048
v -0.609412 0.0507786 0.3048
v -0.609412 0.0507786 -0.3048
v -0.60261 0.0889214 0.288683
v -0.60261 0.0889214 -0.288683
v -0.591124 -0.0889214 0.290195
v -0.591124 -0.0889214 -0.288925
v -0.591124 0.0126786 0.290195
v -0.591124 0.0126786 -0.288925
v -0.590362 -0.0889214 0.155575
v -0.590362 -0.0889214 0.1524
v -0.590362 -0.0889214 0.00317499
v -0.590362 -0.0889214 -0
v -0.590362 -0.0889214 -0.155575
v -0.590362 -0.0889214 -0.15875
v -0.590362 0.0126786 0.155575
v -0.590362 0.0126786 0.1524
v -0.590362 0.0126786 0.00317499
v -0.590362 0.0126786 -0
v -0.590362 0.0126786 -0.155575
v -0.590362 0.0126786 -0.15875
v -0.585028 0.0508417 0.292608
v -0.585028 0.0508417 -0.292608
v -0.457012 -0.0889214 0.290513
v -0.457012 -0.0889214 -0.288925
v -0.457012 0.0126786 0.290513
v -0.457012 0.0126786 -0.288925
v -0.453837 -0.0889214 0.290513
v -0.453837 -0.0889214 -0.288925
v -0.453837 0.0126786 0.290513
v -0.453837 0.0126786 -0.288925
v -0.304612 -0.0889214 0.290513
v -0.304612 -0.0889214 -0.288925
v -0.304612 0.0126786 0.290513
v -0.304612 0.0126786 -0.288925
v -0.301437 -0.0889214 0.290513
v -0.301437 -0.0889214 -0.288925
v -0.301437 0.0126786 0.290513
v -0.301437 0.0126786 -0.288925
v -0.152212 -0.0889214 0.290513
v -0.152212 -0.0889214 -0.288925
v -0.152212 0.0126786 0.290513
v -0.152212 0.0126786 -0.288925
v -0.149037 -0.0889214 0.290513
v -0.149037 -0.0889214 -0.288925
v -0.149037 0.0126786 0.290513
v -0.149037 0.0126786 -0.288925
v 0.000188153 -0.0889214 0.290513
v 0.000188153 -0.0889214 -0.288925
v 0.000188153 0.0126786 0.290513
v 0.000188153 0.0126786 -0.288925
v 0.00336317 -0.0889214 0.290513
v 0.00336317 -0.0889214 -0.288925
v 0.00336317 0.0126786 0.290513
v 0.00336317 0.0126786 -0.288925
v 0.152588 -0.0889214 0.290513
v 0.152588 -0.0889214 -0.288925
v 0.152588 0.0126786 0.290513
v 0.152588 0.0126786 -0.288925
v 0.155763 -0.0889214 0.290513
v 0.155763 -0.0889214 -0.288925
v 0.155763 0.0126786 0.290513
v 0.155763 0.0126786 -0.288925
v 0.304988 -0.0889214 0.290513
v 0.304988 -0.0889214 -0.288925
v 0.304988 0.0126786 0.290513
v 0.304988 0.0126786 -0.288925
v 0.308163 -0.0889214 0.290513
v 0.308163 -0.0889214 -0.288925
v 0.308163 0.0126786 0.290513
v 0.308163 0.0126786 -0.288925
v 0.457388 -0.0889214 0.290513
v 0.457388 -0.0889214 -0.288925
v 0.457388 0.0126786 0.290513
v 0.457388 0.0126786 -0.288925
v 0.460563 -0.0889214 0.290513
v 0.460563 -0.0889214 -0.288925
v 0.460563 0.0126786 0.290513
v 0.460563 0.0126786 -0.288925
v 0.585404 0.0508417 0.292608
v 0.585404 0.0508417 -0.292608
v 0.590738 -0.0889214 0.155575
v 0.590738 -0.0889214 0.1524
v 0.590738 -0.0889214 0.00317499
v 0.590738 -0.0889214 -0
v 0.590738 -0.0889214 -0.155575
v 0.590738 -0.0889214 -0.15875
v 0.590738 0.0126786 0.155575
v 0.590738 0.0126786 0.1524
v 0.590738 0.0126786 0.00317499
v 0.590738 0.0126786 -0
v 0.590738 0.0126786 -0.155575
v 0.590738 0.0126786 -0.15875
v 0.5915 -0.0889214 0.290195
v 0.5915 -0.0889214 -0.288925
v 0.5915 0.0126786 0.290195
v 0.5915 0.0126786 -0.288925
v 0.60452 0.088917 0.286721
v 0.60452 0.088917 -0.286721
v 0.609788 -0.0889214 0.3048
v 0.609788 -0.0889214 -0.3048
v 0.609788 0.0507786 0.3048
v 0.609788 0.0507786 -0.3048
v 0.609854 0.0889032 0.289388
v 0.609854 0.0889032 -0.289388
vn -0.707107 -0.707107 -0
vn -0.707107 0.707107 -0
vn -0.57735 -0.57735 0.57735
vn -0.57735 -0.57735 -0.57735
vn -0.57735 -0.57735 0.57735
vn -0.57735 -0.57735 -0.57735
vn -0.57735 0.57735 0.57735
vn -0.57735 0.57735 -0.57735
vn -0.57735 0.57735 0.57735
vn -0.57735 0.57735 -0.57735
vn -0.57735 -0.57735 0.57735
vn -0.57735 -0.57735 -0.57735
vn -0.572987 0.449109 0.685555
vn -0.572987 0.44911 -0.685555
vn -0.552541 0.754294 0.354597
vn -0.552541 0.754294 -0.354597
vn -0.410795 0.872448 0.264731
vn -0.410795 0.872448 -0.264731
vn -0.408248 -0.816497 0.408248
vn -0.408248 -0.816497 -0.408248
vn -0.408248 -0.816497 0.408248
vn -0.408248 -0.816497 -0.408248
vn -0.354441 0.763293 0.540144
vn -0.354441 0.763293 -0.540144
vn 0.34583 0.794519 0.499141
vn 0.34583 0.794519 -0.499141
vn 0.408248 -0.816497 0.408248
vn 0.408248 -0.816497 -0.408248
vn 0.408248 -0.816497 0.408248
vn 0.408248 -0.816497 -0.408248
vn 0.432319 0.856623 -0.281597
vn 0.432319 0.856623 0.281597
vn 0.569504 0.482574 0.665423
vn 0.569504 0.482574 -0.665423
vn 0.57735 -0.57735 0.57735
vn 0.57735 -0.57735 -0.57735
vn 0.57735 -0.57735 0.57735
vn 0.57735 -0.57735 -0.57735
vn 0.57735 -0.57735 0.57735
vn 0.57735 -0.57735 -0.57735
vn 0.57735 0.57735 0.57735
vn 0.57735 0.57735 -0.57735
vn 0.57735 0.57735 0.57735
vn 0.57735 0.57735 -0.57735
vn 0.581393 0.720728 -0.377536
vn 0.581394 0.720728 0.377536
vn 0.707107 -0.707107 -0
vn 0.707107 0.707107 -0
g group_Default
usemtl Default
s off
f 5//13 3//19 103//29 105//33
f 103//29 104//30 106//34 105//33
g group_Interior_Body
usemtl Interior_Body
s off
f 11//36 12//35 100//11 99//12
g group_Default
usemtl Default
s off
f 6//14 4//20 3//19 5//13
f 84//18 26//31 25//32 83//17
f 104//30 4//20 6//14 106//34
g group_black
usemtl black
s off
f 98//21 104//30 103//29 97//22
f 10//27 4//20 104//30 98//21
f 3//19 4//20 10//27 9//28
f 103//29 3//19 9//28 97//22
g group_Default
usemtl Default
s off
f 100//11 98//21 97//22 99//12
f 12//35 10//27 98//21 100//11
f 9//28 10//27 12//35 11//36
f 97//22 9//28 11//36 99//12
f 5//13 105//33 83//17 25//32
f 8//45 2//24 1//23 7//46
f 84//18 106//34 6//14 26//31
f 107//25 108//26 102//16 101//15
f 107//25 101//15 83//17 105//33
f 101//15 102//16 84//18 83//17
f 84//18 102//16 108//26 106//34
f 106//34 108//26 107//25 105//33
f 26//31 8//45 7//46 25//32
f 25//32 7//46 1//23 5//13
f 1//23 2//24 6//14 5//13
f 2//24 8//45 26//31 6//14
g group_Interior
usemtl Interior
s 1
f 78//10 77//9 81//43 82//44
f 81//43 79//37 80//38 82//44
f 77//9 75//3 79//37 81//43
f 76//4 75//3 77//9 78//10
f 80//38 76//4 78//10 82//44
f 79//37 75//3 76//4 80//38
f 96//42 24//8 23//7 95//41
f 23//7 17//5 89//39 95//41
f 24//8 18//6 17//5 23//7
f 90//40 18//6 24//8 96//42
f 89//39 90//40 96//42 95//41
f 17//5 18//6 90//40 89//39
f 94//42 22//8 21//7 93//41
f 21//7 15//5 87//39 93//41
f 22//8 16//6 15//5 21//7
f 88//40 16//6 22//8 94//42
f 87//39 88//40 94//42 93//41
f 15//5 16//6 88//40 87//39
f 92//42 20//8 19//7 91//41
f 19//7 13//5 85//39 91//41
f 20//8 14//6 13//5 19//7
f 86//40 14//6 20//8 92//42
f 85//39 86//40 92//42 91//41
f 13//5 14//6 86//40 85//39
f 54//10 53//2 57//48 58//44
f 57//48 55//47 56//38 58//44
f 52//4 51//1 53//2 54//10
f 56//38 52//4 54//10 58//44
f 55//47 51//1 52//4 56//38
f 46//10 45//2 49//48 50//44
f 49//48 47//47 48//38 50//44
f 44//4 43//1 45//2 46//10
f 48//38 44//4 46//10 50//44
f 47//47 43//1 44//4 48//38
f 38//10 37//2 41//48 42//44
f 41//48 39//47 40//38 42//44
f 36//4 35//1 37//2 38//10
f 40//38 36//4 38//10 42//44
f 39//47 35//1 36//4 40//38
f 30//10 29//2 33//48 34//44
f 33//48 31//47 32//38 34//44
f 28//4 27//1 29//2 30//10
f 32//38 28//4 30//10 34//44
f 31//47 27//1 28//4 32//38
f 62//10 61//2 65//48 66//44
f 65//48 63//47 64//38 66//44
f 60//4 59//1 61//2 62//10
f 64//38 60//4 62//10 66//44
f 63//47 59//1 60//4 64//38
f 62//10 61//2 65//48 66//44
f 65//48 63//47 64//38 66//44
f 60//4 59//1 61//2 62//10
f 64//38 60//4 62//10 66//44
f 63//47 59//1 60//4 64//38
f 70//10 69//2 73//48 74//44
f 73//48 71//47 72//38 74//44
f 68//4 67//1 69//2 70//10
f 72//38 68//4 70//10 74//44
f 71//47 67//1 68//4 72//38
