####
#
#	OBJ File Generated by LightWave3D
#	LightWave3D OBJ Export v2.3
#
####
o Ductwork.obj
mtllib Ductwork.mtl
g default
v -17.4802 1.02795 -0.926546
v -17.4802 1.02795 -1.85552
v -17.4802 1.70796 -0.926546
v -17.4802 1.70796 -1.85552
v -16.5787 1.02795 8.0414
v -16.5787 1.02795 -0.926546
v -16.5787 1.02795 -1.85552
v -16.5787 1.70796 8.0414
v -16.5787 1.70796 -0.926546
v -16.5787 1.70796 -1.85552
v -16.5769 1.36796 -1.07673
v -16.5768 1.02795 -1.8796
v -16.5767 1.11295 -1.3113
v -16.5767 1.36796 -1.54586
v -16.5767 1.12164 -1.25059
v -16.5767 1.12164 -1.37201
v -16.5767 1.14712 -1.19401
v -16.5766 1.14712 -1.42858
v -16.5766 1.18764 -1.14543
v -16.5765 1.18764 -1.47716
v -16.5765 1.24046 -1.10816
v -16.5764 1.24046 -1.51444
v -16.5763 1.30196 -1.08472
v -16.5762 1.30196 -1.53787
v -16.5761 1.43396 -1.08472
v -16.5761 1.49546 -1.10816
v -16.5761 1.54827 -1.14543
v -16.5761 1.5888 -1.19401
v -16.576 1.61427 -1.25059
v -16.576 1.62296 -1.3113
v -16.576 1.61427 -1.37201
v -16.576 1.5888 -1.42858
v -16.576 1.54827 -1.47716
v -16.576 1.49546 -1.51444
v -16.5759 1.43396 -1.53787
v -16.5758 1.70796 -1.8796
v -16.5758 1.02795 -7.1628
v -16.5756 1.02795 -8.0414
v -16.5743 1.70796 -7.1628
v -16.574 1.70796 -8.0414
v -15.9713 1.36796 -8.04139
v -15.9636 1.30196 -8.04139
v -15.9636 1.43396 -8.04139
v -15.9411 1.24046 -8.04139
v -15.9411 1.49546 -8.04139
v -15.9053 1.18764 -8.04138
v -15.9053 1.54827 -8.04138
v -15.8586 1.14712 -8.04138
v -15.8586 1.5888 -8.04138
v -15.8042 1.12164 -8.04137
v -15.8042 1.61427 -8.04137
v -15.7681 1.36796 8.04139
v -15.7604 1.30196 8.04139
v -15.7604 1.43396 8.04139
v -15.7459 1.11295 -8.04137
v -15.7459 1.62296 -8.04137
v -15.7379 1.24046 8.04139
v -15.7379 1.49546 8.04139
v -15.7374 1.02795 7.17436
v -15.7374 1.02795 -1.8796
v -15.7374 1.02795 -7.1628
v -15.7374 1.02795 -7.16834
v -15.7374 1.70796 7.17436
v -15.7374 1.70796 -1.8796
v -15.7374 1.70796 -7.1628
v -15.7374 1.70796 -7.16834
v -15.7021 1.18764 8.04138
v -15.7021 1.54827 8.04138
v -15.6876 1.12164 -8.04136
v -15.6876 1.61427 -8.04136
v -15.6554 1.14712 8.04138
v -15.6554 1.5888 8.04138
v -15.6332 1.14712 -8.04136
v -15.6332 1.5888 -8.04136
v -15.601 1.12164 8.04137
v -15.601 1.61427 8.04137
v -15.5866 1.18764 -8.04135
v -15.5866 1.54827 -8.04135
v -15.5507 1.24046 -8.04135
v -15.5507 1.49546 -8.04135
v -15.5427 1.11295 8.04137
v -15.5427 1.62296 8.04137
v -15.5282 1.30196 -8.04135
v -15.5282 1.43396 -8.04135
v -15.5205 1.36796 -8.04135
v -15.4844 1.12164 8.04136
v -15.4844 1.61427 8.04136
v -15.43 1.14712 8.04136
v -15.43 1.5888 8.04136
v -15.3834 1.18764 8.04135
v -15.3834 1.54827 8.04135
v -15.3475 1.24046 8.04135
v -15.3475 1.49546 8.04135
v -15.325 1.30196 8.04135
v -15.325 1.43396 8.04135
v -15.3173 1.36796 8.04135
v -4.48915 -1.83533 0.51266
v -4.48915 -1.83533 -0.810093
v -4.48915 1.83533 0.51266
v -4.48915 1.83533 -0.810093
v -3.26048 -1.83533 0.51266
v -3.26048 -1.83533 -0.810093
v -3.26048 1.83533 0.51266
v -3.26048 1.83533 -0.810093
v -1.67575 1.36796 8.04021
v -1.66799 1.30196 8.04021
v -1.66799 1.43396 8.04013
v -1.64525 1.24046 8.0402
v -1.64525 1.49546 8.04006
v -1.60908 1.18764 8.0402
v -1.60908 1.54827 8.03999
v -1.56194 1.14712 8.0402
v -1.56194 1.5888 8.03994
v -1.50704 1.12164 8.04019
v -1.50704 1.61427 8.0399
v -1.44813 1.11295 8.04019
v -1.44813 1.62296 8.03988
v -1.38921 1.12164 8.04018
v -1.38921 1.61427 8.03988
v -1.33432 1.14712 8.04017
v -1.33432 1.5888 8.03991
v -1.28717 1.18764 8.04017
v -1.28717 1.54827 8.03995
v -1.251 1.24046 8.04017
v -1.251 1.49546 8.04001
v -1.22826 1.30196 8.04016
v -1.22826 1.43396 8.04008
v -1.2205 1.36796 8.03976
v 1.06745 1.36796 -8.04021
v 1.07521 1.30196 -8.04021
v 1.07521 1.43396 -8.04021
v 1.09795 1.24046 -8.0402
v 1.09795 1.49546 -8.0402
v 1.13412 1.18764 -8.0402
v 1.13412 1.54827 -8.0402
v 1.18126 1.14712 -8.0402
v 1.18126 1.5888 -8.0402
v 1.23616 1.12164 -8.04019
v 1.23616 1.61427 -8.04019
v 1.29507 1.11295 -8.04018
v 1.29507 1.62296 -8.04019
v 1.35399 1.12164 -8.04018
v 1.35399 1.61427 -8.04018
v 1.40888 1.14712 -8.04017
v 1.40888 1.5888 -8.04017
v 1.45603 1.18764 -8.04017
v 1.45603 1.54827 -8.04017
v 1.4922 1.24046 -8.04017
v 1.4922 1.49546 -8.04017
v 1.51494 1.30196 -8.04016
v 1.51494 1.43396 -8.04016
v 1.5227 1.36796 -8.04016
v 4.13835 -1.81565 0.535977
v 4.13835 -1.81565 -0.789976
v 4.13835 1.83024 0.535977
v 4.13835 1.83024 -0.789976
v 5.03392 1.04018 0.309372
v 5.03392 1.04018 -0.460248
v 5.03392 1.76904 0.309372
v 5.03392 1.76904 -0.460248
v 5.1167 -1.81565 0.535977
v 5.1167 -1.81565 -0.789976
v 5.1167 1.04018 0.309372
v 5.1167 1.04018 -0.460248
v 5.1167 1.76904 0.309372
v 5.1167 1.76904 -0.460248
v 5.1167 1.83024 0.535977
v 5.1167 1.83024 -0.789976
v 14.8601 1.36796 8.03864
v 14.8678 1.30196 8.03871
v 14.8678 1.43396 8.03856
v 14.8903 1.24046 8.03878
v 14.8903 1.49546 8.03848
v 14.9262 1.18764 8.03884
v 14.9262 1.54827 8.03841
v 14.9728 1.14712 8.03889
v 14.9728 1.5888 8.03836
v 15.0125 1.36796 -8.03904
v 15.0202 1.30196 -8.03904
v 15.0202 1.43396 -8.03904
v 15.0272 1.12164 8.03891
v 15.0272 1.61427 8.03833
v 15.0427 1.24046 -8.03904
v 15.0427 1.49546 -8.03904
v 15.0786 1.18764 -8.03903
v 15.0786 1.54827 -8.03903
v 15.0855 1.11295 8.03892
v 15.0855 1.62296 8.03831
v 15.1252 1.14712 -8.03903
v 15.1252 1.5888 -8.03903
v 15.1438 1.12164 8.0389
v 15.1438 1.61427 8.03832
v 15.1796 1.12164 -8.03902
v 15.1796 1.61427 -8.03902
v 15.1982 1.14712 8.03887
v 15.1982 1.5888 8.03834
v 15.2379 1.11295 -8.03902
v 15.2379 1.62296 -8.03902
v 15.2449 1.18764 8.03881
v 15.2449 1.54827 8.03839
v 15.2807 1.24046 8.03875
v 15.2807 1.49546 8.03845
v 15.2962 1.12164 -8.03901
v 15.2962 1.61427 -8.03901
v 15.3032 1.30196 8.03867
v 15.3032 1.43396 8.03852
v 15.3109 1.36796 8.03859
v 15.3506 1.14712 -8.03901
v 15.3506 1.5888 -8.03901
v 15.3973 1.18764 -8.039
v 15.3973 1.54827 -8.039
v 15.4331 1.24046 -8.039
v 15.4331 1.49546 -8.039
v 15.4556 1.30196 -8.039
v 15.4556 1.43396 -8.039
v 15.4633 1.36796 -8.039
v 15.7315 1.02795 7.17436
v 15.7315 1.02795 -7.16834
v 15.7315 1.04018 0.309372
v 15.7315 1.04018 -0.460248
v 15.7315 1.70796 7.17436
v 15.7315 1.70796 0.309372
v 15.7315 1.70796 -0.460248
v 15.7315 1.70796 -7.16834
v 15.8713 1.04018 0.309372
v 15.8713 1.04018 -0.460248
v 15.8713 1.76904 0.309372
v 15.8713 1.76904 -0.460248
v 16.5764 1.02795 -8.03898
v 16.5764 1.70796 -8.03898
v 16.5778 1.24046 1.11766
v 16.5778 1.30196 1.09423
v 16.5778 1.36796 1.08623
v 16.5778 1.43396 1.09423
v 16.5778 1.49546 1.11766
v 16.5778 1.18764 1.15494
v 16.5778 1.54827 1.15494
v 16.5778 1.14712 1.20352
v 16.5778 1.5888 1.20352
v 16.5778 1.12164 1.26009
v 16.5778 1.61427 1.26009
v 16.5778 1.11295 1.3208
v 16.5778 1.62296 1.3208
v 16.5778 1.12164 1.38151
v 16.5778 1.61427 1.38151
v 16.5778 1.14712 1.43808
v 16.5778 1.5888 1.43808
v 16.5778 1.18764 1.48666
v 16.5778 1.54827 1.48666
v 16.5778 1.24046 1.52394
v 16.5778 1.49546 1.52394
v 16.5778 1.30196 1.54737
v 16.5778 1.43396 1.54737
v 16.5778 1.36796 1.55537
v 16.5787 1.02795 8.03898
v 16.5787 1.02795 1.80573
v 16.5787 1.02795 0.876759
v 16.5787 1.70796 8.03818
v 16.5787 1.70796 1.80573
v 16.5787 1.70796 0.876759
v 17.4802 1.02795 1.80573
v 17.4802 1.02795 0.876759
v 17.4802 1.70796 1.80573
v 17.4802 1.70796 0.876759
vt 3 4.59163e-41
vn -1 0 -0
vn -1 0 -0.000294917
vn -0.707107 -0.707107 -0
vn -0.707107 0 0.707107
vn -0.707107 0 -0.707107
vn -0.707107 0.707107 -0
vn -0.707107 0.707107 -0
vn -0.707107 0 0.707107
vn -0.707107 0 -0.707107
vn -0.577852 -0.576525 0.577673
vn -0.57735 -0.57735 -0.57735
vn -0.57735 0.57735 -0.57735
vn -0.577294 -0.577294 -0.577464
vn -0.577294 0.577294 -0.577464
vn -0.576967 0.578295 0.576788
vn -0.408514 -0.816151 -0.408673
vn -0.408397 -0.816389 0.408316
vn -0.408248 -0.816497 0.408248
vn -0.408248 -0.816497 -0.408248
vn -0.408248 0.816497 0.408248
vn -0.408248 0.816497 -0.408248
vn -0.408074 0.816711 0.407993
vn -0.407889 0.816777 -0.408047
vn 0 -1 -0
vn 0 -0.707107 0.707107
vn 0 -0.707107 -0.707107
vn 0 -0.707107 -0.707107
vn 0 0.707107 -0.707107
vn 0 0.707107 0.707107
vn 0 0.707107 -0.707107
vn 0 1 -0
vn 7.29812e-05 -1.67857e-07 -1
vn 9.7273e-05 0.00118646 0.999999
vn 0.40813 0.816665 0.40803
vn 0.408248 -0.816497 0.408248
vn 0.408248 0.816497 0.408248
vn 0.408248 -0.816497 -0.408248
vn 0.408248 0.816497 -0.408248
vn 0.408263 -0.816467 -0.408293
vn 0.408263 0.816467 -0.408293
vn 0.408453 -0.816342 0.408353
vn 0.57735 -0.57735 0.57735
vn 0.57735 0.57735 0.57735
vn 0.57735 -0.57735 0.57735
vn 0.57735 -0.57735 -0.57735
vn 0.57735 0.57735 0.57735
vn 0.57735 0.57735 -0.57735
vn 0.707107 0 0.707107
vn 0.707107 0 -0.707107
vn 0.707107 -0.707107 -0
vn 0.707107 0 0.707107
vn 0.707107 0 -0.707107
vn 0.707107 0.707107 -0
vn 1 -1.73124e-07 -0.000145916
vn 1 0 -0
g group_Ductwork
usemtl Ductwork
s 1
l 8//22 5//17
l 40//23 38//16
l 38//16 40//23
l 66//36 62//35
l 62//35 38//16
l 40//23 66//36
l 59//37 63//38
l 5//17 59//37
l 63//38 8//22
l 255//41 258//34
l 229//39 230//40
l 230//40 229//39
l 218//18 224//20
l 229//39 218//18
l 224//20 230//40
l 221//21 217//19
l 217//19 255//41
l 258//34 221//21
l 5//17 8//22
l 255//41 258//34
l 258//34 255//41
l 217//19 221//21
l 221//21 258//34
l 255//41 217//19
l 63//38 59//37
l 8//22 63//38
l 59//37 5//17
l 40//23 38//16
l 230//40 229//39
l 229//39 230//40
l 224//20 218//18
l 218//18 229//39
l 230//40 224//20
l 62//35 66//36
l 38//16 62//35
l 66//36 40//23
f 217//19 218//18 229//39 255/1/41
f 217//19 59//37 63//38 221/1/21
f 258//34 221//21 63//38 8/1/22
f 59//37 217//19 255//41 5/1/17
f 224//20 66//36 62//35 218/1/18
f 229//39 218//18 62//35 38/1/16
f 66//36 224//20 230//40 40/1/23
f 101//48 103//48 99//8 97/1/8
f 102//49 104//49 103//48 101/1/48
f 100//9 104//49 102//49 98/1/9
f 99//8 100//9 98//9 97/1/8
f 161//51 167//51 155//4 153/1/4
f 156//5 168//52 162//52 154/1/5
f 155//4 156//5 154//5 153/1/4
f 8//22 68//33 72//33 76//33 82//33 87//33 89//33 91//33 93//33 95//33 96//33 94//33 92//33 90//33 88//33 86//33 81//33 75//33 71//33 67//33 57//33 53//33 52//33 54//33 58//33 68//33 8//22 5//17 255/1/41 199//33 195//33 191//33 187//33 181//33 176//33 174//33 172//33 170//33 169//33 128//33 126//33 124//33 122//33 120//33 118//33 116//33 114//33 112//33 110//33 108//33 106//33 105//33 107//33 109//33 111//33 113//33 115//33 117//33 119//33 121//33 123//33 125//33 127//33 128//33 169//33 171//33 173//33 175//33 177//33 182//33 188//33 192//33 196//33 200//33 202//33 206//33 207//33 205//33 201//33 199//33 255/1/41 258//34
f 40//23 47//32 45//32 43//32 41//32 42//32 44//32 46//32 48//32 50//32 55//32 69//32 73//32 77//32 79//32 83//32 85//32 84//32 80//32 78//32 74//32 70//32 56//32 51//32 49//32 47//32 40//23 230/1/40 211//32 209//32 204//32 198//32 194//32 190//32 186//32 184//32 180//32 178//32 152//32 151//32 149//32 147//32 145//32 143//32 141//32 139//32 137//32 135//32 133//32 131//32 129//32 130//32 132//32 134//32 136//32 138//32 140//32 142//32 144//32 146//32 148//32 150//32 152//32 178//32 179//32 183//32 185//32 189//32 193//32 197//32 203//32 208//32 210//32 212//32 214//32 216//32 215//32 213//32 211//32 230/1/40 229//39 38//16
f 229//39 230/1/40 258//34 254//54 253//54 251//54 249//54 247//54 245//54 243//54 241//54 239//54 237//54 235//54 234//54 233//54 232//54 231//54 236//54 238//54 240//54 242//54 244//54 246//54 248//54 250//54 252//54 254//54 258//34 255//41
f 2//11 7//27 6//24 1//3
f 4//12 10//28 7//27 2//11
f 3//6 4//12 2//11 1//3
f 9//31 10//28 4//12 3//6
f 256//25 257//24 262//50 261//44
f 263//46 259//29 256//25 261//44
f 262//50 264//53 263//46 261//44
f 264//53 260//31 259//29 263//46
f 38//16 37//10 39//15 40/1/23
f 66//36 65//43 61//42 62/1/35
f 38//16 62//35 61//42 37//10
f 65//43 66//36 40/1/23 39//15
f 59//37 60//45 64//47 63//38
f 36//14 34//2 33//2 32//2 31//2 30//2 29//2 28//2 27//2 26//2 25//2 11//2 23//2 21//2 19//2 17//2 15//2 13//2 16//2 18//2 20//2 22//2 24//2 14//2 35//2 34//2 36//14 12//13 5/1/17 8/1/22
f 12//13 60//45 59//37 5/1/17
f 63//38 64//47 36//14 8/1/22
f 61//42 65//43 39//15 37//10
f 12//13 36//14 64//47 60//45
f 221//21 222//7 219//1 220//1 223//7 224//20 218/1/18 217//19
f 230//40 224//20 223//7 222//7 221//21 258/1/34
f 167//51 165//55 166//55 164//55 163//55 165//55 167//51 161/1/51 162//52 168//52
f 158//26 226//26 225//25 157//25
f 225//25 227//29 159//29 157//25
f 160//30 228//30 226//26 158//26
f 227//29 228//30 160//30 159//29
