####
#
#	OBJ File Generated by LightWave3D
#	LightWave3D OBJ Export v2.3
#
####
o FileCabinet .obj
mtllib FileCabinet .mtl
g default
v -0.2479 -0.683638 1.15235
v -0.2479 -0.683638 0.00518322
v -0.2479 -0.683638 -0.00515366
v -0.2479 -0.683638 -1.15235
v -0.2479 -0.663486 1.15235
v -0.2479 -0.663486 0.00518322
v -0.2479 -0.663486 -0.00515366
v -0.2479 -0.663486 -1.15235
v -0.2479 -0.661546 1.15235
v -0.2479 -0.661546 0.00518322
v -0.2479 -0.661546 -0.00515366
v -0.2479 -0.661546 -1.15235
v -0.2479 -0.332518 1.15235
v -0.2479 -0.332518 0.00518322
v -0.2479 -0.332518 -0.00515366
v -0.2479 -0.332518 -1.15235
v -0.2479 -0.330433 1.15235
v -0.2479 -0.330433 0.00518322
v -0.2479 -0.330433 -0.00515366
v -0.2479 -0.330433 -1.15235
v -0.2479 -0.00140422 1.15235
v -0.2479 -0.00140422 0.00518322
v -0.2479 -0.00140422 -0.00515366
v -0.2479 -0.00140422 -1.15235
v -0.2479 0.000912034 1.15235
v -0.2479 0.000912034 1.12936
v -0.2479 0.000912034 1.12606
v -0.2479 0.000912034 0.0314727
v -0.2479 0.000912034 0.028172
v -0.2479 0.000912034 0.00518322
v -0.2479 0.000912034 -0.00515366
v -0.2479 0.000912034 -0.028172
v -0.2479 0.000912034 -0.0314436
v -0.2479 0.000912034 -1.12603
v -0.2479 0.000912034 -1.12933
v -0.2479 0.000912034 -1.15235
v -0.2479 0.329941 1.15235
v -0.2479 0.329941 1.12936
v -0.2479 0.329941 1.12606
v -0.2479 0.329941 0.0314727
v -0.2479 0.329941 0.028172
v -0.2479 0.329941 0.00518322
v -0.2479 0.329941 -0.00515366
v -0.2479 0.329941 -0.028172
v -0.2479 0.329941 -0.0314436
v -0.2479 0.329941 -1.12603
v -0.2479 0.329941 -1.12933
v -0.2479 0.329941 -1.15235
v -0.2479 0.331533 1.15235
v -0.2479 0.331533 1.12936
v -0.2479 0.331533 1.12606
v -0.2479 0.331533 0.0314727
v -0.2479 0.331533 0.028172
v -0.2479 0.331533 0.00518322
v -0.2479 0.331533 -0.00515366
v -0.2479 0.331533 -0.028172
v -0.2479 0.331533 -0.0314436
v -0.2479 0.331533 -1.12603
v -0.2479 0.331533 -1.12933
v -0.2479 0.331533 -1.15235
v -0.2479 0.660562 1.15235
v -0.2479 0.660562 1.12936
v -0.2479 0.660562 1.12606
v -0.2479 0.660562 0.0314727
v -0.2479 0.660562 0.028172
v -0.2479 0.660562 0.00518322
v -0.2479 0.660562 -0.00515366
v -0.2479 0.660562 -0.028172
v -0.2479 0.660562 -0.0314436
v -0.2479 0.660562 -1.12603
v -0.2479 0.660562 -1.12933
v -0.2479 0.660562 -1.15235
v -0.2479 0.662212 1.15235
v -0.2479 0.662212 0.00518322
v -0.2479 0.662212 -0.00515366
v -0.2479 0.662212 -1.15235
v -0.2479 0.683638 1.15235
v -0.2479 0.683638 0.00518322
v -0.2479 0.683638 -0.00515366
v -0.2479 0.683638 -1.15235
v -0.234176 0.000912034 1.12936
v -0.234176 0.000912034 1.12606
v -0.234176 0.000912034 0.0314727
v -0.234176 0.000912034 0.028172
v -0.234176 0.000912034 -0.028172
v -0.234176 0.000912034 -0.0314436
v -0.234176 0.000912034 -1.12603
v -0.234176 0.000912034 -1.12933
v -0.234176 0.329941 1.12936
v -0.234176 0.329941 1.12606
v -0.234176 0.329941 0.0314727
v -0.234176 0.329941 0.028172
v -0.234176 0.329941 -0.028172
v -0.234176 0.329941 -0.0314436
v -0.234176 0.329941 -1.12603
v -0.234176 0.329941 -1.12933
v -0.234176 0.331533 1.12936
v -0.234176 0.331533 1.12606
v -0.234176 0.331533 0.0314727
v -0.234176 0.331533 0.028172
v -0.234176 0.331533 -0.028172
v -0.234176 0.331533 -0.0314436
v -0.234176 0.331533 -1.12603
v -0.234176 0.331533 -1.12933
v -0.234176 0.660562 1.12936
v -0.234176 0.660562 1.12606
v -0.234176 0.660562 0.0314727
v -0.234176 0.660562 0.028172
v -0.234176 0.660562 -0.028172
v -0.234176 0.660562 -0.0314436
v -0.234176 0.660562 -1.12603
v -0.234176 0.660562 -1.12933
v 0.234177 -0.661546 1.12936
v 0.234177 -0.661546 1.12606
v 0.234177 -0.661546 0.0314727
v 0.234177 -0.661546 0.028172
v 0.234177 -0.661546 -0.028172
v 0.234177 -0.661546 -0.0314436
v 0.234177 -0.661546 -1.12606
v 0.234177 -0.661546 -1.12933
v 0.234177 -0.332518 1.12936
v 0.234177 -0.332518 1.12606
v 0.234177 -0.332518 0.0314727
v 0.234177 -0.332518 0.028172
v 0.234177 -0.332518 -0.028172
v 0.234177 -0.332518 -0.0314436
v 0.234177 -0.332518 -1.12606
v 0.234177 -0.332518 -1.12933
v 0.234177 -0.330433 1.12936
v 0.234177 -0.330433 1.12606
v 0.234177 -0.330433 0.0314727
v 0.234177 -0.330433 0.028172
v 0.234177 -0.330433 -0.028172
v 0.234177 -0.330433 -0.0314436
v 0.234177 -0.330433 -1.12606
v 0.234177 -0.330433 -1.12933
v 0.234177 -0.00140422 1.12936
v 0.234177 -0.00140422 1.12606
v 0.234177 -0.00140422 0.0314727
v 0.234177 -0.00140422 0.028172
v 0.234177 -0.00140422 -0.028172
v 0.234177 -0.00140422 -0.0314436
v 0.234177 -0.00140422 -1.12606
v 0.234177 -0.00140422 -1.12933
v 0.2479 -0.683638 1.15235
v 0.2479 -0.683638 0.00518322
v 0.2479 -0.683638 -0.00515366
v 0.2479 -0.683638 -1.15235
v 0.2479 -0.663486 1.15235
v 0.2479 -0.663486 0.00518322
v 0.2479 -0.663486 -0.00515366
v 0.2479 -0.663486 -1.15235
v 0.2479 -0.661546 1.15235
v 0.2479 -0.661546 1.12936
v 0.2479 -0.661546 1.12606
v 0.2479 -0.661546 0.0314727
v 0.2479 -0.661546 0.028172
v 0.2479 -0.661546 0.00518322
v 0.2479 -0.661546 -0.00515366
v 0.2479 -0.661546 -0.028172
v 0.2479 -0.661546 -0.0314436
v 0.2479 -0.661546 -1.12606
v 0.2479 -0.661546 -1.12933
v 0.2479 -0.661546 -1.15235
v 0.2479 -0.332518 1.15235
v 0.2479 -0.332518 1.12936
v 0.2479 -0.332518 1.12606
v 0.2479 -0.332518 0.0314727
v 0.2479 -0.332518 0.028172
v 0.2479 -0.332518 0.00518322
v 0.2479 -0.332518 -0.00515366
v 0.2479 -0.332518 -0.028172
v 0.2479 -0.332518 -0.0314436
v 0.2479 -0.332518 -1.12606
v 0.2479 -0.332518 -1.12933
v 0.2479 -0.332518 -1.15235
v 0.2479 -0.330433 1.15235
v 0.2479 -0.330433 1.12936
v 0.2479 -0.330433 1.12606
v 0.2479 -0.330433 0.0314727
v 0.2479 -0.330433 0.028172
v 0.2479 -0.330433 0.00518322
v 0.2479 -0.330433 -0.00515366
v 0.2479 -0.330433 -0.028172
v 0.2479 -0.330433 -0.0314436
v 0.2479 -0.330433 -1.12606
v 0.2479 -0.330433 -1.12933
v 0.2479 -0.330433 -1.15235
v 0.2479 -0.00140422 1.15235
v 0.2479 -0.00140422 1.12936
v 0.2479 -0.00140422 1.12606
v 0.2479 -0.00140422 0.0314727
v 0.2479 -0.00140422 0.028172
v 0.2479 -0.00140422 0.00518322
v 0.2479 -0.00140422 -0.00515366
v 0.2479 -0.00140422 -0.028172
v 0.2479 -0.00140422 -0.0314436
v 0.2479 -0.00140422 -1.12606
v 0.2479 -0.00140422 -1.12933
v 0.2479 -0.00140422 -1.15235
v 0.2479 0.000912034 1.15235
v 0.2479 0.000912034 0.00518322
v 0.2479 0.000912034 -0.00515366
v 0.2479 0.000912034 -1.15235
v 0.2479 0.329941 1.15235
v 0.2479 0.329941 0.00518322
v 0.2479 0.329941 -0.00515366
v 0.2479 0.329941 -1.15235
v 0.2479 0.331533 1.15235
v 0.2479 0.331533 0.00518322
v 0.2479 0.331533 -0.00515366
v 0.2479 0.331533 -1.15235
v 0.2479 0.660562 1.15235
v 0.2479 0.660562 0.00518322
v 0.2479 0.660562 -0.00515366
v 0.2479 0.660562 -1.15235
v 0.2479 0.662212 1.15235
v 0.2479 0.662212 0.00518322
v 0.2479 0.662212 -0.00515366
v 0.2479 0.662212 -1.15235
v 0.2479 0.683638 1.15235
v 0.2479 0.683638 0.00518322
v 0.2479 0.683638 -0.00515366
v 0.2479 0.683638 -1.15235
vt -1 0
vt 0 -1
vt 0 0
vt 0 1
vt 1 0
vn -0.707107 0 0.707107
vn -0.707107 0 -0.707107
vn -0.707107 0 0.707107
vn -0.707107 0 -0.707107
vn -0.57735 -0.57735 0.57735
vn -0.57735 -0.57735 -0.57735
vn -0.57735 -0.57735 0.57735
vn -0.57735 -0.57735 -0.57735
vn -0.57735 0.57735 0.57735
vn -0.57735 0.57735 -0.57735
vn -0.57735 0.57735 0.57735
vn -0.57735 0.57735 -0.57735
vn -0.57735 0.57735 0.57735
vn -0.57735 0.57735 -0.57735
vn -0.408248 0.816497 0.408248
vn -0.408248 0.816497 -0.408248
vn -0.408248 0.816497 0.408248
vn -0.408248 0.816497 -0.408248
vn 0 0 1
vn 0 0 -1
vn 0 0.707107 0.707107
vn 0 0.707107 -0.707107
vn 0.408248 0.816497 0.408248
vn 0.408248 0.816497 -0.408248
vn 0.57735 0.57735 0.57735
vn 0.57735 0.57735 -0.57735
vn 0.57735 0.57735 0.57735
vn 0.57735 0.57735 -0.57735
vn 0.57735 -0.57735 0.57735
vn 0.57735 -0.57735 -0.57735
vn 0.57735 -0.57735 0.57735
vn 0.57735 -0.57735 -0.57735
vn 0.57735 0.57735 0.57735
vn 0.57735 0.57735 -0.57735
vn 0.57735 0.57735 0.57735
vn 0.57735 0.57735 -0.57735
vn 0.707107 0 0.707107
vn 0.707107 0 -0.707107
vn 0.707107 0 0.707107
vn 0.707107 0 -0.707107
g group_Default
usemtl Default
s off
f 220/2/32 219/2/31 75/2/7 76/2/8
f 224/4/34 80/4/10 79/4/9 223/4/33
f 224/3/34 220/3/32 76/3/8 80/3/10
f 80/1/10 76/1/8 75/1/7 79/1/9
f 79/3/9 75/3/7 219/3/31 223/3/33
f 223/5/33 219/5/31 220/5/32 224/5/34
f 218/2/30 217/2/29 73/2/5 74/2/6
f 222/4/36 78/4/12 77/4/11 221/4/35
f 222/3/36 218/3/30 74/3/6 78/3/12
f 78/1/12 74/1/6 73/1/5 77/1/11
f 77/3/11 73/3/5 217/3/29 221/3/35
f 221/5/35 217/5/29 218/5/30 222/5/36
f 58/1/2 57/1/1 69/1/11 70/1/12
f 57/3/1 102/3/19 110/3/21 69/3/11
f 69/4/11 110/4/21 111/4/22 70/4/12
f 70/3/12 111/3/22 103/3/20 58/3/2
f 150/4/36 6/4/12 5/4/11 149/4/35
f 150/3/36 146/3/40 2/3/2 6/3/12
f 6/1/12 2/1/2 1/1/1 5/1/11
f 5/3/11 1/3/1 145/3/39 149/3/35
f 149/5/35 145/5/39 146/5/40 150/5/36
f 37/3/11 25/3/1 201/3/39 205/3/23
f 206/3/24 202/3/40 30/3/2 42/3/12
f 42/1/12 30/1/2 29/1/1 41/1/11
f 26/1/2 25/1/1 37/1/11 38/1/12
f 38/3/12 89/3/16 81/3/2 26/3/2
f 29/3/1 84/3/1 92/3/15 41/3/11
f 92/4/15 206/4/24 42/4/12 41/4/11
f 38/4/12 37/4/11 205/4/23 89/4/16
f 205/4/23 206/4/24 92/4/15 89/4/16
f 92/1/15 84/1/1 81/1/2 89/1/16
f 205/5/23 201/5/39 202/5/40 206/5/24
f 28/1/2 27/1/1 39/1/11 40/1/12
f 27/3/1 82/3/19 90/3/21 39/3/11
f 39/4/11 90/4/21 91/4/22 40/4/12
f 40/3/12 91/3/22 83/3/20 28/3/2
f 52/1/2 51/1/1 63/1/11 64/1/12
f 51/3/1 98/3/19 106/3/21 63/3/11
f 63/4/11 106/4/21 107/4/22 64/4/12
f 64/3/12 107/3/22 99/3/20 52/3/2
f 61/3/11 49/3/1 209/3/39 213/3/23
f 214/3/24 210/3/40 54/3/2 66/3/12
f 66/1/12 54/1/2 53/1/1 65/1/11
f 50/1/2 49/1/1 61/1/11 62/1/12
f 62/3/12 105/3/16 97/3/2 50/3/2
f 53/3/1 100/3/1 108/3/15 65/3/11
f 108/4/15 214/4/24 66/4/12 65/4/11
f 62/4/12 61/4/11 213/4/23 105/4/16
f 213/4/23 214/4/24 108/4/15 105/4/16
f 108/1/15 100/1/1 97/1/2 105/1/16
f 210/5/40 214/5/24 213/5/23 209/5/39
f 194/3/28 182/3/38 18/3/2 22/3/16
f 22/1/16 18/1/2 17/1/1 21/1/15
f 21/3/15 17/3/1 177/3/37 189/3/27
f 189/5/27 177/5/37 178/5/38 190/5/28
f 181/5/37 182/5/38 194/5/28 193/5/27
f 193/3/27 140/3/23 132/3/39 181/3/37
f 178/3/38 129/3/40 137/3/24 190/3/28
f 137/4/24 21/4/15 189/4/27 190/4/28
f 193/4/27 194/4/28 22/4/16 140/4/23
f 22/4/16 21/4/15 137/4/24 140/4/23
f 137/5/24 129/5/40 132/5/39 140/5/23
f 179/5/39 180/5/40 192/5/36 191/5/35
f 180/3/40 131/3/20 139/3/22 192/3/36
f 192/4/36 139/4/22 138/4/21 191/4/35
f 191/3/35 138/3/21 130/3/19 179/3/39
f 155/5/39 156/5/40 168/5/36 167/5/35
f 156/3/40 115/3/20 123/3/22 168/3/36
f 168/4/36 123/4/22 122/4/21 167/4/35
f 167/3/35 122/3/21 114/3/19 155/3/39
f 170/3/36 158/3/40 10/3/2 14/3/16
f 14/1/16 10/1/2 9/1/1 13/1/15
f 13/3/15 9/3/1 153/3/39 165/3/35
f 165/5/35 153/5/39 154/5/40 166/5/36
f 157/5/39 158/5/40 170/5/36 169/5/35
f 169/3/35 124/3/23 116/3/39 157/3/39
f 154/3/40 113/3/40 121/3/24 166/3/36
f 121/4/24 13/4/15 165/4/35 166/4/36
f 169/4/35 170/4/36 14/4/16 124/4/23
f 14/4/16 13/4/15 121/4/24 124/4/23
f 121/5/24 113/5/40 116/5/39 124/5/23
f 152/4/34 8/4/10 7/4/9 151/4/33
f 152/3/34 148/3/40 4/3/2 8/3/10
f 8/1/10 4/1/2 3/1/1 7/1/9
f 7/3/9 3/3/1 147/3/39 151/3/33
f 151/5/33 147/5/39 148/5/40 152/5/34
f 43/3/11 31/3/1 203/3/39 207/3/23
f 208/3/24 204/3/40 36/3/4 48/3/14
f 48/1/14 36/1/4 35/1/3 47/1/13
f 32/1/2 31/1/1 43/1/11 44/1/12
f 44/3/12 93/3/18 85/3/4 32/3/2
f 35/3/3 88/3/3 96/3/17 47/3/13
f 96/4/17 208/4/24 48/4/14 47/4/13
f 44/4/12 43/4/11 207/4/23 93/4/18
f 207/4/23 208/4/24 96/4/17 93/4/18
f 96/1/17 88/1/3 85/1/4 93/1/18
f 207/5/23 203/5/39 204/5/40 208/5/24
f 34/1/2 33/1/1 45/1/11 46/1/12
f 33/3/1 86/3/19 94/3/21 45/3/11
f 45/4/11 94/4/21 95/4/22 46/4/12
f 46/3/12 95/3/22 87/3/20 34/3/2
f 67/3/13 55/3/3 211/3/39 215/3/23
f 216/3/24 212/3/40 60/3/2 72/3/12
f 72/1/12 60/1/2 59/1/1 71/1/11
f 56/1/4 55/1/3 67/1/13 68/1/14
f 68/3/14 109/3/16 101/3/2 56/3/4
f 59/3/1 104/3/1 112/3/15 71/3/11
f 112/4/15 216/4/24 72/4/12 71/4/11
f 68/4/14 67/4/13 215/4/23 109/4/16
f 215/4/23 216/4/24 112/4/15 109/4/16
f 112/1/15 104/1/1 101/1/2 109/1/16
f 212/5/40 216/5/24 215/5/23 211/5/39
f 200/3/36 188/3/40 20/3/2 24/3/16
f 24/1/16 20/1/2 19/1/1 23/1/15
f 23/3/15 19/3/1 183/3/37 195/3/25
f 195/5/25 183/5/37 184/5/38 196/5/26
f 187/5/39 188/5/40 200/5/36 199/5/35
f 199/3/35 144/3/23 136/3/39 187/3/39
f 184/3/38 133/3/40 141/3/24 196/3/26
f 141/4/24 23/4/15 195/4/25 196/4/26
f 199/4/35 200/4/36 24/4/16 144/4/23
f 24/4/16 23/4/15 141/4/24 144/4/23
f 141/5/24 133/5/40 136/5/39 144/5/23
f 185/5/37 186/5/38 198/5/28 197/5/27
f 186/3/38 135/3/20 143/3/22 198/3/28
f 198/4/28 143/4/22 142/4/21 197/4/27
f 197/3/27 142/3/21 134/3/19 185/3/37
f 161/5/39 162/5/40 174/5/36 173/5/35
f 162/3/40 119/3/20 127/3/22 174/3/36
f 174/4/36 127/4/22 126/4/21 173/4/35
f 173/3/35 126/3/21 118/3/19 161/3/39
f 176/3/36 164/3/40 12/3/2 16/3/16
f 16/1/16 12/1/2 11/1/1 15/1/15
f 15/3/15 11/3/1 159/3/37 171/3/25
f 171/5/25 159/5/37 160/5/38 172/5/26
f 163/5/39 164/5/40 176/5/36 175/5/35
f 175/3/35 128/3/23 120/3/39 163/3/39
f 160/3/38 117/3/40 125/3/24 172/3/26
f 125/4/24 15/4/15 171/4/25 172/4/26
f 175/4/35 176/4/36 16/4/16 128/4/23
f 16/4/16 15/4/15 125/4/24 128/4/23
f 125/5/24 117/5/40 120/5/39 128/5/23
