####
#
#	OBJ File Generated by LightWave3D
#	LightWave3D OBJ Export v2.3
#
####
o GroundScene.obj
mtllib GroundScene.mtl
g default
v -154.618 -0.00537665 142.397
v -154.618 -0.00537665 -142.397
v -154.618 0.00537665 142.397
v -154.618 0.00537665 -142.397
v 154.618 -0.00537665 142.397
v 154.618 -0.00537665 -142.397
v 154.618 0.00537665 142.397
v 154.618 0.00537665 -142.397
vt 0 0
vt 0 1
vt 1 0
vt 1 1
vn -0.57735 -0.57735 0.57735
vn -0.57735 -0.57735 -0.57735
vn -0.57735 0.57735 0.57735
vn -0.57735 0.57735 -0.57735
vn 0.57735 -0.57735 0.57735
vn 0.57735 -0.57735 -0.57735
vn 0.57735 0.57735 0.57735
vn 0.57735 0.57735 -0.57735
g group_Ground
usemtl Ground
s off
f 3/1/3 4/2/4 2/2/2 1/1/1
f 2/2/2 6/4/6 5/3/5 1/1/1
f 4/2/4 8/4/8 6/4/6 2/2/2
f 7/3/7 8/4/8 4/2/4 3/1/3
f 5/3/5 7/3/7 3/1/3 1/1/1
f 6/4/6 8/4/8 7/3/7 5/3/5
