####
#
#	OBJ File Generated by LightWave3D
#	LightWave3D OBJ Export v2.3
#
####
o LW_Sky.obj
mtllib LW_Sky.mtl
g default
v -8.64248e+07 -8.64248e+07 8.64248e+07
v -8.64248e+07 -8.64248e+07 -8.64246e+07
v -8.64248e+07 8.64248e+07 8.64248e+07
v -8.64248e+07 8.64248e+07 -8.64248e+07
v 8.64248e+07 -8.64248e+07 8.64248e+07
v 8.64248e+07 -8.64243e+07 -8.64246e+07
v 8.64248e+07 8.64248e+07 8.64248e+07
v 8.64248e+07 8.64248e+07 -8.64248e+07
vt -2.85489 3.8592
vt -2.85489 3.85489
vt 3.85058 -2.85489
vt 3.85489 -2.85489
vt 3.8592 3.85489
vn -0.707107 0 -0.707107
vn -0.707107 1.04727e-06 0.707107
vn -0.57735 -0.57735 0.577351
vn -0.57735 -0.57735 -0.57735
vn 0.57735 -0.57735 -0.57735
vn 0.57735 -0.57735 0.577351
vn 0.707107 0 -0.707107
vn 0.707107 1.04727e-06 0.707107
g group_LW_Sky_Left
usemtl LW_Sky_Left
s off
f 2/3/8 4//6 3//5 1//7
g group_LW_Sky_Back
usemtl LW_Sky_Back
s off
f 1/4/7 3//5 7//4 5//1
g group_LW_Sky_Up
usemtl LW_Sky_Up
s off
f 3/1/5 4//6 8//3 7//4
g group_LW_Sky_Front
usemtl LW_Sky_Front
s off
f 4/2/6 2//8 6//2 8//3
g group_LW_Sky_Right
usemtl LW_Sky_Right
s off
f 7/5/4 8//3 6//2 5//1
