####
#
#	OBJ File Generated by LightWave3D
#	LightWave3D OBJ Export v2.3
#
####
o ReturnAirGrill.obj
mtllib ReturnAirGrill.mtl
g default
v -0.175138 0.00987697 0.367096
v -0.175138 0.00987697 -0.369382
v -0.1686 -0.00987697 0.352933
v -0.1686 -0.00987697 -0.355219
v 0.168204 -0.00987697 0.352933
v 0.168204 -0.00987697 -0.355219
v 0.175138 0.00987697 0.367096
v 0.175138 0.00987697 -0.369382
vn -0.757092 0.0822262 0.648113
vn -0.757092 0.0822268 -0.648113
vn -0.417932 -0.835064 -0.357773
vn -0.417932 -0.835064 0.357772
vn 0.413229 -0.83819 0.355921
vn 0.413229 -0.83819 -0.355921
vn 0.755887 0.0689774 -0.651058
vn 0.755888 0.0689768 0.651058
g group_Grill
usemtl Grill
s 1
f 4//3 6//6 5//5 3//4
g group_Default
usemtl Default
s off
f 5//5 7//8 1//1 3//4
f 6//6 8//7 7//8 5//5
f 2//2 8//7 6//6 4//3
f 1//1 2//2 4//3 3//4
f 7//8 8//7 2//2 1//1
