####
#
#	OBJ File Generated by LightWave3D
#	LightWave3D OBJ Export v2.3
#
####
o Vertical_Fin_Shader.obj
mtllib Vertical_Fin_Shader.mtl
g default
v -18.7503 -1.5875 0.4572
v -18.7503 -1.5875 -0.4572
v -18.7503 1.5875 0.4572
v -18.7503 1.5875 -0.4572
v -18.6385 -1.5875 0.4572
v -18.6385 -1.5875 -0.4572
v -18.6385 1.5875 0.4572
v -18.6385 1.5875 -0.4572
v -16.9723 -1.5875 0.4572
v -16.9723 -1.5875 -0.4572
v -16.9723 1.5875 0.4572
v -16.9723 1.5875 -0.4572
v -16.8605 -1.5875 0.4572
v -16.8605 -1.5875 -0.4572
v -16.8605 1.5875 0.4572
v -16.8605 1.5875 -0.4572
v -15.0927 -1.5875 0.4572
v -15.0927 -1.5875 -0.4572
v -15.0927 1.5875 0.4572
v -15.0927 1.5875 -0.4572
v -14.9809 -1.5875 0.4572
v -14.9809 -1.5875 -0.4572
v -14.9809 1.5875 0.4572
v -14.9809 1.5875 -0.4572
v -13.2131 -1.5875 0.4572
v -13.2131 -1.5875 -0.4572
v -13.2131 1.5875 0.4572
v -13.2131 1.5875 -0.4572
v -13.1013 -1.5875 0.4572
v -13.1013 -1.5875 -0.4572
v -13.1013 1.5875 0.4572
v -13.1013 1.5875 -0.4572
v -11.2827 -1.5875 0.4572
v -11.2827 -1.5875 -0.4572
v -11.2827 1.5875 0.4572
v -11.2827 1.5875 -0.4572
v -11.1709 -1.5875 0.4572
v -11.1709 -1.5875 -0.4572
v -11.1709 1.5875 0.4572
v -11.1709 1.5875 -0.4572
v -9.40309 -1.5875 0.4572
v -9.40309 -1.5875 -0.4572
v -9.40309 1.5875 0.4572
v -9.40309 1.5875 -0.4572
v -9.29132 -1.5875 0.4572
v -9.29132 -1.5875 -0.4572
v -9.29132 1.5875 0.4572
v -9.29132 1.5875 -0.4572
v -7.57429 -1.5875 0.4572
v -7.57429 -1.5875 -0.4572
v -7.57429 1.5875 0.4572
v -7.57429 1.5875 -0.4572
v -7.46251 -1.5875 0.4572
v -7.46251 -1.5875 -0.4572
v -7.46251 1.5875 0.4572
v -7.46251 1.5875 -0.4572
v -5.69469 -1.5875 0.4572
v -5.69469 -1.5875 -0.4572
v -5.69469 1.5875 0.4572
v -5.69469 1.5875 -0.4572
v -5.58292 -1.5875 0.4572
v -5.58292 -1.5875 -0.4572
v -5.58292 1.5875 0.4572
v -5.58292 1.5875 -0.4572
v -3.76429 -1.5875 0.4572
v -3.76429 -1.5875 -0.4572
v -3.76429 1.5875 0.4572
v -3.76429 1.5875 -0.4572
v -3.65251 -1.5875 0.4572
v -3.65251 -1.5875 -0.4572
v -3.65251 1.5875 0.4572
v -3.65251 1.5875 -0.4572
v -1.93549 -1.5875 0.4572
v -1.93549 -1.5875 -0.4572
v -1.93549 1.5875 0.4572
v -1.93549 1.5875 -0.4572
v -1.82371 -1.5875 0.4572
v -1.82371 -1.5875 -0.4572
v -1.82371 1.5875 0.4572
v -1.82371 1.5875 -0.4572
v -0.0558855 -1.5875 0.4572
v -0.0558855 -1.5875 -0.4572
v -0.0558855 1.5875 0.4572
v -0.0558855 1.5875 -0.4572
v 0.0558852 -1.5875 0.4572
v 0.0558852 -1.5875 -0.4572
v 0.0558852 1.5875 0.4572
v 0.0558852 1.5875 -0.4572
v 1.77291 -1.5875 0.4572
v 1.77291 -1.5875 -0.4572
v 1.77291 1.5875 0.4572
v 1.77291 1.5875 -0.4572
v 1.88469 -1.5875 0.4572
v 1.88469 -1.5875 -0.4572
v 1.88469 1.5875 0.4572
v 1.88469 1.5875 -0.4572
v 4.00811 -1.5875 0.4572
v 4.00811 -1.5875 -0.4572
v 4.00811 1.5875 0.4572
v 4.00811 1.5875 -0.4572
v 4.11988 -1.5875 0.4572
v 4.11988 -1.5875 -0.4572
v 4.11988 1.5875 0.4572
v 4.11988 1.5875 -0.4572
v 5.83691 -1.5875 0.4572
v 5.83691 -1.5875 -0.4572
v 5.83691 1.5875 0.4572
v 5.83691 1.5875 -0.4572
v 5.94869 -1.5875 0.4572
v 5.94869 -1.5875 -0.4572
v 5.94869 1.5875 0.4572
v 5.94869 1.5875 -0.4572
v 7.41171 -1.5875 0.4572
v 7.41171 -1.5875 -0.4572
v 7.41171 1.5875 0.4572
v 7.41171 1.5875 -0.4572
v 7.52349 -1.5875 0.4572
v 7.52349 -1.5875 -0.4572
v 7.52349 1.5875 0.4572
v 7.52349 1.5875 -0.4572
v 9.29131 -1.5875 0.4572
v 9.29131 -1.5875 -0.4572
v 9.29131 1.5875 0.4572
v 9.29131 1.5875 -0.4572
v 9.40308 -1.5875 0.4572
v 9.40308 -1.5875 -0.4572
v 9.40308 1.5875 0.4572
v 9.40308 1.5875 -0.4572
v 11.1709 -1.5875 0.4572
v 11.1709 -1.5875 -0.4572
v 11.1709 1.5875 0.4572
v 11.1709 1.5875 -0.4572
v 11.2827 -1.5875 0.4572
v 11.2827 -1.5875 -0.4572
v 11.2827 1.5875 0.4572
v 11.2827 1.5875 -0.4572
v 12.9997 -1.5875 0.4572
v 12.9997 -1.5875 -0.4572
v 12.9997 1.5875 0.4572
v 12.9997 1.5875 -0.4572
v 13.1115 -1.5875 0.4572
v 13.1115 -1.5875 -0.4572
v 13.1115 1.5875 0.4572
v 13.1115 1.5875 -0.4572
v 14.9809 -1.5875 0.4572
v 14.9809 -1.5875 -0.4572
v 14.9809 1.5875 0.4572
v 14.9809 1.5875 -0.4572
v 15.0927 -1.5875 0.4572
v 15.0927 -1.5875 -0.4572
v 15.0927 1.5875 0.4572
v 15.0927 1.5875 -0.4572
v 16.8097 -1.5875 0.4572
v 16.8097 -1.5875 -0.4572
v 16.8097 1.5875 0.4572
v 16.8097 1.5875 -0.4572
v 16.9215 -1.5875 0.4572
v 16.9215 -1.5875 -0.4572
v 16.9215 1.5875 0.4572
v 16.9215 1.5875 -0.4572
v 18.6385 -1.5875 0.4572
v 18.6385 -1.5875 -0.4572
v 18.6385 1.5875 0.4572
v 18.6385 1.5875 -0.4572
v 18.7503 -1.5875 0.4572
v 18.7503 -1.5875 -0.4572
v 18.7503 1.5875 0.4572
v 18.7503 1.5875 -0.4572
vn -0.57735 -0.57735 0.57735
vn -0.57735 -0.57735 -0.57735
vn -0.57735 0.57735 0.57735
vn -0.57735 0.57735 -0.57735
vn 0.57735 -0.57735 0.57735
vn 0.57735 -0.57735 -0.57735
vn 0.57735 0.57735 0.57735
vn 0.57735 0.57735 -0.57735
g group_Default
usemtl Default
s off
f 163//3 164//4 162//2 161//1
f 162//2 166//6 165//5 161//1
f 164//4 168//8 166//6 162//2
f 167//7 168//8 164//4 163//3
f 165//5 167//7 163//3 161//1
f 166//6 168//8 167//7 165//5
f 155//3 156//4 154//2 153//1
f 154//2 158//6 157//5 153//1
f 156//4 160//8 158//6 154//2
f 159//7 160//8 156//4 155//3
f 157//5 159//7 155//3 153//1
f 158//6 160//8 159//7 157//5
f 147//3 148//4 146//2 145//1
f 146//2 150//6 149//5 145//1
f 148//4 152//8 150//6 146//2
f 151//7 152//8 148//4 147//3
f 149//5 151//7 147//3 145//1
f 150//6 152//8 151//7 149//5
f 139//3 140//4 138//2 137//1
f 138//2 142//6 141//5 137//1
f 140//4 144//8 142//6 138//2
f 143//7 144//8 140//4 139//3
f 141//5 143//7 139//3 137//1
f 142//6 144//8 143//7 141//5
f 131//3 132//4 130//2 129//1
f 130//2 134//6 133//5 129//1
f 132//4 136//8 134//6 130//2
f 135//7 136//8 132//4 131//3
f 133//5 135//7 131//3 129//1
f 134//6 136//8 135//7 133//5
f 123//3 124//4 122//2 121//1
f 122//2 126//6 125//5 121//1
f 124//4 128//8 126//6 122//2
f 127//7 128//8 124//4 123//3
f 125//5 127//7 123//3 121//1
f 126//6 128//8 127//7 125//5
f 115//3 116//4 114//2 113//1
f 114//2 118//6 117//5 113//1
f 116//4 120//8 118//6 114//2
f 119//7 120//8 116//4 115//3
f 117//5 119//7 115//3 113//1
f 118//6 120//8 119//7 117//5
f 107//3 108//4 106//2 105//1
f 106//2 110//6 109//5 105//1
f 108//4 112//8 110//6 106//2
f 111//7 112//8 108//4 107//3
f 109//5 111//7 107//3 105//1
f 110//6 112//8 111//7 109//5
f 99//3 100//4 98//2 97//1
f 98//2 102//6 101//5 97//1
f 100//4 104//8 102//6 98//2
f 103//7 104//8 100//4 99//3
f 101//5 103//7 99//3 97//1
f 102//6 104//8 103//7 101//5
f 91//3 92//4 90//2 89//1
f 90//2 94//6 93//5 89//1
f 92//4 96//8 94//6 90//2
f 95//7 96//8 92//4 91//3
f 93//5 95//7 91//3 89//1
f 94//6 96//8 95//7 93//5
f 83//3 84//4 82//2 81//1
f 82//2 86//6 85//5 81//1
f 84//4 88//8 86//6 82//2
f 87//7 88//8 84//4 83//3
f 85//5 87//7 83//3 81//1
f 86//6 88//8 87//7 85//5
f 75//3 76//4 74//2 73//1
f 74//2 78//6 77//5 73//1
f 76//4 80//8 78//6 74//2
f 79//7 80//8 76//4 75//3
f 77//5 79//7 75//3 73//1
f 78//6 80//8 79//7 77//5
f 67//3 68//4 66//2 65//1
f 66//2 70//6 69//5 65//1
f 68//4 72//8 70//6 66//2
f 71//7 72//8 68//4 67//3
f 69//5 71//7 67//3 65//1
f 70//6 72//8 71//7 69//5
f 59//3 60//4 58//2 57//1
f 58//2 62//6 61//5 57//1
f 60//4 64//8 62//6 58//2
f 63//7 64//8 60//4 59//3
f 61//5 63//7 59//3 57//1
f 62//6 64//8 63//7 61//5
f 51//3 52//4 50//2 49//1
f 50//2 54//6 53//5 49//1
f 52//4 56//8 54//6 50//2
f 55//7 56//8 52//4 51//3
f 53//5 55//7 51//3 49//1
f 54//6 56//8 55//7 53//5
f 43//3 44//4 42//2 41//1
f 42//2 46//6 45//5 41//1
f 44//4 48//8 46//6 42//2
f 47//7 48//8 44//4 43//3
f 45//5 47//7 43//3 41//1
f 46//6 48//8 47//7 45//5
f 35//3 36//4 34//2 33//1
f 34//2 38//6 37//5 33//1
f 36//4 40//8 38//6 34//2
f 39//7 40//8 36//4 35//3
f 37//5 39//7 35//3 33//1
f 38//6 40//8 39//7 37//5
f 27//3 28//4 26//2 25//1
f 26//2 30//6 29//5 25//1
f 28//4 32//8 30//6 26//2
f 31//7 32//8 28//4 27//3
f 29//5 31//7 27//3 25//1
f 30//6 32//8 31//7 29//5
f 19//3 20//4 18//2 17//1
f 18//2 22//6 21//5 17//1
f 20//4 24//8 22//6 18//2
f 23//7 24//8 20//4 19//3
f 21//5 23//7 19//3 17//1
f 22//6 24//8 23//7 21//5
f 11//3 12//4 10//2 9//1
f 10//2 14//6 13//5 9//1
f 12//4 16//8 14//6 10//2
f 15//7 16//8 12//4 11//3
f 13//5 15//7 11//3 9//1
f 14//6 16//8 15//7 13//5
f 3//3 4//4 2//2 1//1
f 2//2 6//6 5//5 1//1
f 4//4 8//8 6//6 2//2
f 7//7 8//8 4//4 3//3
f 5//5 7//7 3//3 1//1
f 6//6 8//8 7//7 5//5
