####
#
#	OBJ File Generated by LightWave3D
#	LightWave3D OBJ Export v2.3
#
####
o GypsumBoard.obj
mtllib GypsumBoard.mtl
g default
v -0.4418 -1.36639 0.110482
v 0.4418 -1.36639 0.110482
v 0.4418 -1.36639 0.104131
v -0.4418 -1.36639 0.104131
v -0.4418 0.735463 0.110482
v 0.4418 1.37046 0.110482
v 0.4418 1.37046 0.104131
v -0.4418 0.735463 0.104131
vn -0.57735 -0.57735 -0.57735
vn 0.57735 -0.57735 -0.57735
vn 0.57735 -0.57735 0.57735
vn -0.57735 -0.57735 0.57735
vn 0.57735 -0.57735 0.57735
vn 0.307586 0.599823 0.73865
vn -0.775748 0.3978 0.489869
vn -0.57735 -0.57735 0.57735
vn 0.57735 -0.57735 -0.57735
vn 0.307586 0.599823 -0.73865
vn 0.307586 0.599823 0.73865
vn 0.57735 -0.57735 0.57735
vn -0.775748 0.3978 -0.489869
vn 0.307586 0.599823 -0.73865
vn 0.57735 -0.57735 -0.57735
vn -0.57735 -0.57735 -0.57735
vn -0.775748 0.3978 0.489869
vn -0.775748 0.3978 -0.489869
vn -0.57735 -0.57735 -0.57735
vn -0.57735 -0.57735 0.57735
vn 0.307586 0.599823 0.73865
vn 0.307586 0.599823 -0.73865
vn -0.775748 0.3978 -0.489869
vn -0.775748 0.3978 0.489869
g group_Gypsum
usemtl Gypsum
s off
f 4//1 3//2 2//3 1//4
f 2//5 6//6 5//7 1//8
f 3//9 7//10 6//11 2//12
f 8//13 7//14 3//15 4//16
f 5//17 8//18 4//19 1//20
f 6//21 7//22 8//23 5//24
